<svg xmlns="http://www.w3.org/2000/svg" style="display: none;">

	<symbol id="credit-card-1" viewBox="0 0 512 520">
		<title>credit-card-1</title>
		<g>
			<g>
				<path d="M458.667,85.333H53.333C23.936,85.333,0,109.269,0,138.667v234.667c0,29.397,23.936,53.333,53.333,53.333h405.333 c29.397,0,53.333-23.936,53.333-53.333V138.667C512,109.269,488.064,85.333,458.667,85.333z M490.667,373.333 c0,17.643-14.357,32-32,32H53.333c-17.643,0-32-14.357-32-32V138.667c0-17.643,14.357-32,32-32h405.333c17.643,0,32,14.357,32,32 V373.333z" />
			</g>
		</g>
		<g>
			<g>
				<path d="M501.333,149.333H10.667C4.779,149.333,0,154.112,0,160v64c0,5.888,4.779,10.667,10.667,10.667h490.667 c5.888,0,10.667-4.779,10.667-10.667v-64C512,154.112,507.221,149.333,501.333,149.333z M490.667,213.333H21.333v-42.667h469.333 V213.333z" />
			</g>
		</g>
		<g>
			<g>
				<path d="M202.667,298.667h-128c-5.888,0-10.667,4.779-10.667,10.667S68.779,320,74.667,320h128 c5.888,0,10.667-4.779,10.667-10.667S208.555,298.667,202.667,298.667z" />
			</g>
		</g>
		<g>
			<g>
				<path d="M202.667,341.333h-128C68.779,341.333,64,346.112,64,352c0,5.888,4.779,10.667,10.667,10.667h128 c5.888,0,10.667-4.779,10.667-10.667C213.333,346.112,208.555,341.333,202.667,341.333z" />
			</g>
		</g>
		<g>
			<g>
				<path d="M416,277.333h-21.333c-17.643,0-32,14.357-32,32v21.333c0,17.643,14.357,32,32,32H416c17.643,0,32-14.357,32-32v-21.333 C448,291.691,433.643,277.333,416,277.333z M426.667,330.667c0,5.888-4.779,10.667-10.667,10.667h-21.333 c-5.888,0-10.667-4.779-10.667-10.667v-21.333c0-5.888,4.779-10.667,10.667-10.667H416c5.888,0,10.667,4.779,10.667,10.667 V330.667z" />
			</g>
		</g>
		<text x="100" y="520" fill="black" font-size="10em">Forex</text>
	</symbol>

	<symbol id="credit-card" viewBox="0 0 512 560">
		<title>credit-card</title>
		<rect x="344" y="319.492" width="48" height="16" />
		<rect x="280" y="319.492" width="48" height="16" />
		<rect x="216" y="319.492" width="48" height="16" />
		<path d="M471.896,165.916L313.6,7.596c-4.495-4.538-10.62-7.088-17.008-7.08h-0.072c-6.346,0.003-12.424,2.554-16.872,7.08 l-167.92,167.896H24c-13.255,0-24,10.745-24,24v224c0,13.255,10.745,24,24,24h118.528l23.872,23.896 c4.495,4.538,10.62,7.088,17.008,7.08h0.064c6.348-0.002,12.43-2.553,16.88-7.08l23.92-23.896H408c13.255,0,24-10.745,24-24 V239.764l39.856-39.856c4.549-4.453,7.117-10.547,7.128-16.912C479.008,176.582,476.454,170.428,471.896,165.916z M370.128,86.772l-88.72,88.72h-67.936L336.16,52.804L370.128,86.772z M290.976,18.876c3.043-3.117,8.037-3.177,11.155-0.133 c0.045,0.044,0.09,0.088,0.133,0.133l22.584,22.616l-134.008,134h-56.488L290.976,18.876z M189.024,460.108 c-1.463,1.528-3.485,2.394-5.6,2.4c-2.144-0.005-4.196-0.869-5.696-2.4l-12.568-12.616h36.488L189.024,460.108z M416,423.492 c0,4.418-3.582,8-8,8H24c-4.418,0-8-3.582-8-8v-112h400V423.492z M416,295.492H16v-48h400V295.492z M416,231.492H16v-32 c0-4.418,3.582-8,8-8h384c4.418,0,8,3.582,8,8V231.492z M460.584,188.556L460.584,188.556L432,217.14v-17.648 c0-13.255-10.745-24-24-24H304l77.408-77.408l79.144,79.144c1.537,1.506,2.402,3.568,2.4,5.72 C462.95,185.06,462.096,187.082,460.584,188.556z" />
		<path d="M76.728,415.708c1.168-1.01,2.262-2.104,3.272-3.272c10.579,12.322,28.756,14.663,42.112,5.424 c8.62-6.027,13.794-15.85,13.888-26.368c0-17.673-14.327-32-32-32c-1.588-0.022-3.174,0.112-4.736,0.4l-0.208,0.056 c-0.08,0-0.16,0-0.232,0c-7.329,1.218-13.994,4.979-18.824,10.624c-11.56-13.368-31.769-14.833-45.136-3.272 c-13.368,11.56-14.833,31.769-3.272,45.136C43.152,425.804,63.36,427.269,76.728,415.708z M101.976,375.66 c0.667-0.127,1.345-0.183,2.024-0.168c8.837,0,16,7.163,16,16c-0.008,3.385-1.111,6.677-3.144,9.384 c-0.288,0.392-0.512,0.8-0.84,1.208c-0.056,0.064-0.136,0.104-0.2,0.168c-3.022,3.337-7.314,5.241-11.816,5.24 c-8.835-0.151-15.876-7.435-15.725-16.27C88.409,383.377,94.211,376.786,101.976,375.66z M56,375.492c8.837,0,16,7.163,16,16 s-7.163,16-16,16s-16-7.163-16-16S47.163,375.492,56,375.492z" />
		<text x="55" y="550" fill="black" font-size="10em">Cards</text>
	</symbol>

	<symbol id="gift" viewBox="0 0 24 30">
		<title>gift</title>
		<path d="m20.5 24h-17c-.827 0-1.5-.673-1.5-1.5v-10c0-.276.224-.5.5-.5h19c.276 0 .5.224.5.5v10c0 .827-.673 1.5-1.5 1.5zm-17.5-11v9.5c0 .275.225.5.5.5h17c.275 0 .5-.225.5-.5v-9.5z" />
		<path d="m22.5 13h-21c-.827 0-1.5-.673-1.5-1.5v-3c0-.827.673-1.5 1.5-1.5h21c.827 0 1.5.673 1.5 1.5v3c0 .827-.673 1.5-1.5 1.5zm-21-5c-.275 0-.5.225-.5.5v3c0 .275.225.5.5.5h21c.275 0 .5-.225.5-.5v-3c0-.275-.225-.5-.5-.5z" />
		<path d="m12 8c-.145 0-.283-.062-.378-.173-.095-.109-.138-.254-.117-.397.011-.075 1.129-7.43 6.995-7.43 2.584 0 3.501 1.396 3.501 2.591 0 2.246-3.103 5.409-10.001 5.409zm6.5-7c-4.112 0-5.514 4.385-5.889 5.99 5.479-.17 8.39-2.616 8.39-4.399 0-.444-.187-.81-.554-1.085-.44-.331-1.114-.506-1.947-.506z" />
		<path d="m12.001 8c-6.898 0-10.001-3.163-10.001-5.409 0-.754.339-1.424.953-1.885.615-.462 1.496-.706 2.548-.706 5.866 0 6.984 7.355 6.995 7.43.021.144-.022.288-.117.397-.095.111-.233.173-.378.173zm-6.5-7c-1.543 0-2.501.609-2.501 1.591 0 1.784 2.913 4.23 8.395 4.4-.363-1.615-1.73-5.991-5.894-5.991z" />
		<path d="m12 24c-.276 0-.5-.224-.5-.5v-16c0-.276.224-.5.5-.5s.5.224.5.5v16c0 .276-.224.5-.5.5z" />
		<text x="1" y="30" fill="black" font-size="0.5em">Rewards</text>
	</symbol>

	<symbol id="piggy-bank" viewBox="0 0 512 612">
		<title>piggy-bank</title>
		<g>
			<g>
				<path d="M422.503,270.613c-4.115,0-7.451,3.336-7.451,7.451c0,5.217-4.244,9.461-9.461,9.461c-5.216,0-9.461-4.244-9.461-9.461 c0-4.116-3.336-7.451-7.451-7.451s-7.451,3.336-7.451,7.451c0,13.434,10.93,24.363,24.363,24.363 c13.433,0,24.363-10.93,24.363-24.363C429.954,273.947,426.618,270.613,422.503,270.613z" />
			</g>
		</g>
		<g>
			<g>
				<path d="M492.444,271.83l-20.972-6.718c-2.686-0.861-4.803-3.005-5.662-5.736c-4.42-14.053-11.09-27.246-19.825-39.214 c-3.981-5.455-8.408-10.664-13.244-15.623c3.094-13.573,4.776-28.934,4.558-42.205c-0.312-18.985-4.106-30.12-11.598-34.044 c-4.035-2.116-16.315-8.544-82.782,21.882c-1.574,0.72-3.044,1.607-4.405,2.623c-4.481-1.204-9.061-2.318-13.669-3.318 c-0.555-0.121-1.127-0.228-1.686-0.346c5.386-11.766,8.531-24.545,9.122-37.737c0.184-4.112-2.999-7.594-7.111-7.777 c-4.101-0.204-7.594,2.998-7.777,7.11c-0.971,21.691-9.969,42.1-25.335,57.467c-9.181,9.181-19.931,15.85-31.388,20.05 c-19.869-2.788-40.107-2.788-59.976,0c-11.458-4.2-22.207-10.869-31.388-20.05c-16.394-16.394-25.423-38.191-25.423-61.376 c0-23.186,9.029-44.982,25.423-61.376c16.394-16.395,38.192-25.424,61.376-25.424c23.184,0,44.982,9.029,61.376,25.424 c6.588,6.588,12.032,14.106,16.181,22.343c1.851,3.676,6.332,5.156,10.007,3.304c3.676-1.85,5.155-6.331,3.304-10.006 c-4.863-9.659-11.24-18.466-18.953-26.18c-19.209-19.209-44.749-29.788-71.914-29.788c-27.165,0-52.705,10.579-71.914,29.788 c-19.209,19.21-29.788,44.749-29.788,71.914s10.579,52.705,29.788,71.914c5.541,5.541,11.569,10.306,17.945,14.298 c0.002,0,0.004-0.001,0.006-0.001c-4.633,1.204-9.231,2.556-13.778,4.076c-3.903,1.305-6.009,5.526-4.704,9.43 c1.304,3.903,5.527,6.009,9.429,4.705c40.636-13.585,85.396-13.585,126.032,0c0.784,0.262,1.58,0.386,2.363,0.386 c3.117,0,6.023-1.972,7.066-5.091c1.305-3.903-0.801-8.125-4.704-9.43c-4.547-1.52-9.145-2.873-13.778-4.076 c0.002,0,0.004,0.001,0.006,0.001c6.377-3.992,12.404-8.757,17.945-14.298c4.902-4.902,9.229-10.255,12.986-15.944 c2.054,0.399,4.093,0.817,6.102,1.253c2.676,0.581,5.34,1.205,7.98,1.86c-0.083,0.324-0.168,0.647-0.237,0.976 c-3.634,17.245-3.398,32.497,0.701,45.33c3.684,11.535,10.333,20.88,19.76,27.777c11.111,8.128,24.525,11.639,36.676,11.639 c9.145,0,17.576-1.99,23.768-5.497c7.004-3.967,12.872-12.326,17.517-24.876c2.147,2.506,4.182,5.073,6.1,7.701 c7.777,10.654,13.714,22.396,17.646,34.898c2.309,7.343,8.041,13.121,15.332,15.458l20.972,6.718 c5.503,1.763,9.2,6.828,9.2,12.606v34.775c0,5.778-3.697,10.843-9.2,12.606l-33.789,10.823 c-5.406,1.733-9.981,5.448-12.882,10.462c-13.275,22.942-34.146,41.927-62.037,56.428c-3.222,1.677-5.454,4.676-6.126,8.23 l-10.822,57.303c-0.299,1.579-1.682,2.724-3.289,2.724h-35.187c-1.607,0-2.99-1.146-3.289-2.724l-5.994-31.669 c-1.18-6.231-7.024-10.37-13.314-9.417c-15.157,2.292-30.775,3.453-46.418,3.453c-11.638,0-23.127-0.649-34.15-1.93 c-6.095-0.701-11.773,3.454-12.912,9.472l-5.696,30.091c-0.299,1.579-1.682,2.724-3.289,2.724h-35.187 c-1.607,0-2.99-1.146-3.293-2.748l-10.42-54.122c-0.671-3.487-2.861-6.452-6.012-8.135C96.25,401.595,71.12,359.191,71.12,304.351 c0-27.708,6.062-52.209,18.017-72.825c11.156-19.239,27.45-35.146,48.429-47.281c3.562-2.061,4.779-6.619,2.719-10.182 c-2.06-3.562-6.618-4.777-10.181-2.719C89.425,194.876,64.89,231.18,58.135,277.29v-0.001c-0.717-0.065-1.435-0.127-2.15-0.201 c0.13-4.975-0.77-9.995-2.73-14.867c-4.323-10.746-13.203-18.502-22.624-19.759c-7.424-0.994-14.489,2.158-19.392,8.636 c-7.109,9.394-5.95,16.828-3.727,21.41c3.753,7.733,13.4,13.203,29.409,16.642c-0.44,0.659-0.924,1.321-1.454,1.986 c-9.459,11.863-20.603,14.486-27.839,14.733C3.392,306.012,0,309.413,0,313.652v0.036c0,4.181,3.299,7.591,7.476,7.782 c0.535,0.025,1.094,0.038,1.676,0.038c9.156,0,23.851-3.377,37.969-21.08c2.229-2.794,4.045-5.742,5.441-8.788 c1.406,0.159,2.757,0.295,4.051,0.415c0-0.003,0-0.005,0.001-0.008c-0.254,4.038-0.395,8.135-0.395,12.304 c0,31.028,7.397,58.693,21.984,82.23c13.45,21.7,32.707,39.468,57.255,52.83l10.13,52.616c1.629,8.608,9.17,14.856,17.931,14.856 h35.187c8.761,0,16.302-6.248,17.931-14.856l5.15-27.208c10.696,1.133,21.77,1.707,32.965,1.707c15.36,0,30.702-1.07,45.654-3.182 l5.429,28.685c1.63,8.608,9.171,14.855,17.931,14.855h35.187c8.761,0,16.302-6.248,17.932-14.859l10.537-55.791 c29.768-15.741,52.206-36.419,66.704-61.475c1.045-1.806,2.654-3.131,4.53-3.732l33.788-10.823 C504.141,356.455,512,345.686,512,333.403v-34.775C512,286.346,504.141,275.577,492.444,271.83z M421.278,183.273 c-2.868,24.526-10.561,45.506-18.291,49.884c-8.786,4.977-29.071,5.938-44.301-5.203c-15.248-11.154-20.323-31.212-14.678-58.006 c0-0.001,0-0.001,0-0.001c0.567-2.691,2.479-5.019,5.114-6.225c37.304-17.076,58.811-22.661,66.801-22.661 c1.206,0,2.104,0.127,2.702,0.361C421.025,143.98,424.173,158.521,421.278,183.273z M20.921,266.001 c-0.771-1.59,1.049-4.385,2.203-5.911c1.829-2.416,3.514-2.91,4.787-2.91c0.269,0,0.52,0.022,0.75,0.053 c3.426,0.457,8.226,4.227,10.769,10.548c0.599,1.488,1.377,3.953,1.559,7.027C30.674,272.671,22.66,269.59,20.921,266.001z" />
			</g>
		</g>
		<g>
			<g>
				<path d="M237.918,98.277V71.613c9.195,0.657,12.611,4.86,15.763,4.86c3.941,0,5.78-4.991,5.78-7.487 c0-6.437-12.611-9.195-21.543-9.458V55.98c0-1.576-1.971-3.021-3.941-3.021c-2.234,0-3.81,1.445-3.81,3.021v3.809 c-12.479,1.314-24.958,7.882-24.958,24.433c0,16.814,13.136,21.543,24.958,25.746v30.869 c-13.399-1.051-16.945-10.246-21.28-10.246c-3.284,0-6.042,4.335-6.042,7.488c0,6.436,11.034,15.237,27.322,15.5h0v4.072 c0,1.576,1.577,3.021,3.81,3.021c1.971,0,3.941-1.445,3.941-3.021v-4.466c14.187-1.971,23.907-10.903,23.907-27.06 C261.825,108.261,249.346,102.48,237.918,98.277z M230.955,95.782c-6.962-2.627-12.61-5.385-12.61-12.872 c0-6.831,5.254-10.115,12.61-11.034V95.782z M237.129,140.574v-27.716c6.436,2.758,11.559,6.436,11.559,14.711 C248.688,135.058,244.222,139.261,237.129,140.574z" />
			</g>
		</g>
		<text x="85" y="580" fill="black" font-size="10em">Savings</text>
	</symbol>

	<symbol id="bar-chart" viewBox="0 0 512 625">
		<title>bar-chart</title>
		<path d="m504.5 464.67h-20.78v-191.17c0-4.143-3.357-7.5-7.5-7.5s-7.5 3.357-7.5 7.5v191.17h-45.61v-265.82h45.609v39.65c0 4.143 3.357 7.5 7.5 7.5s7.5-3.357 7.5-7.5v-47.15c0-4.143-3.357-7.5-7.5-7.5h-60.609c-4.143 0-7.5 3.357-7.5 7.5v273.32h-29.452v-144.02c0-4.143-3.357-7.5-7.5-7.5h-60.609c-4.143 0-7.5 3.357-7.5 7.5v144.02h-29.447v-204.629c0-4.143-3.357-7.5-7.5-7.5h-60.609c-4.143 0-7.5 3.357-7.5 7.5v204.629h-29.447v-73.309c0-4.143-3.357-7.5-7.5-7.5h-60.61c-4.143 0-7.5 3.357-7.5 7.5v73.309h-45.606v-41.564h16.739c4.143 0 7.5-3.357 7.5-7.5s-3.357-7.5-7.5-7.5h-16.739v-97.128h16.739c4.143 0 7.5-3.357 7.5-7.5s-3.357-7.5-7.5-7.5h-16.739v-97.128h16.739c4.143 0 7.5-3.357 7.5-7.5s-3.357-7.5-7.5-7.5h-16.739v-97.128h16.739c4.143 0 7.5-3.357 7.5-7.5s-3.357-7.5-7.5-7.5h-16.739v-64.222c0-4.143-3.357-7.5-7.5-7.5h-32.33c-4.143 0-7.5 3.357-7.5 7.5v126.5c0 4.143 3.357 7.5 7.5 7.5s7.5-3.357 7.5-7.5v-119h17.33v457.17c0 4.143 3.357 7.5 7.5 7.5h457.17v17.33h-473.34c-4.775 0-8.66-3.885-8.66-8.66v-319.34c0-4.143-3.357-7.5-7.5-7.5s-7.5 3.357-7.5 7.5v319.34c0 13.046 10.614 23.66 23.66 23.66h480.84c4.143 0 7.5-3.357 7.5-7.5v-32.33c0-4.143-3.357-7.5-7.5-7.5zm-186.451-136.52h45.609v136.52h-45.609zm-105.057-60.609h45.609v197.129h-45.609zm-105.057 131.32h45.61v65.809h-45.61z" />
		<path d="m130.75 225.11c5.268 0 10.255-1.698 14.412-4.906l92.515-71.161 91.357 52.704c9.72 5.604 22.157 3.56 29.573-4.858l67.118-76.151c3.333 9.065 12.01 15.442 22.194 15.442.33 0 .663-.003.963-.016 13.039-.527 23.218-11.561 22.691-24.594l-2.021-50.472c-.255-6.315-2.953-12.154-7.598-16.44-4.646-4.287-10.695-6.494-16.996-6.252l-50.463 2.02c-13.028.526-23.212 11.557-22.701 24.597.466 11.518 9.145 20.811 20.163 22.452l-56.058 63.602-28.313-16.333c-3.589-2.069-8.175-.84-10.245 2.75-2.069 3.588-.839 8.174 2.749 10.244l33.63 19.399c3.093 1.782 7.013 1.142 9.375-1.538l71.33-80.93c1.984-2.252 2.436-5.472 1.146-8.183-1.29-2.71-4.065-4.375-7.073-4.271l-12.704.51c-4.785.21-8.819-3.541-9.011-8.3-.188-4.776 3.545-8.819 8.315-9.012l50.463-2.02c2.318-.097 4.521.718 6.222 2.288 1.7 1.569 2.688 3.707 2.781 6.018l2.021 50.473c.193 4.771-3.534 8.811-8.339 9.005-.106.005-.217.003-.327.002-4.66 0-8.458-3.655-8.646-8.321l-.41-10.17c-.124-3.062-2.098-5.741-4.985-6.767-2.889-1.024-6.108-.189-8.136 2.109l-78.391 88.941c-2.715 3.082-7.27 3.829-10.824 1.781l-95.7-55.21c-2.63-1.519-5.915-1.301-8.32.552l-96.499 74.226c-1.518 1.17-3.336 1.789-5.259 1.789-2.719 0-5.226-1.23-6.873-3.37-2.914-3.792-2.206-9.245 1.575-12.155l105.06-80.81c2.793-2.145 6.564-2.398 9.61-.64l29.66 17.11c3.587 2.071 8.174.84 10.244-2.748s.84-8.175-2.748-10.244l-29.657-17.108c-8.32-4.808-18.626-4.125-26.253 1.74l-105.062 80.81c-10.334 7.952-12.273 22.838-4.319 33.189 4.515 5.865 11.354 9.227 18.764 9.227z" />
		<text x="40" y="610" fill="black" font-size="10em">Analytics</text>
	</symbol>

	<symbol id="invoice" viewBox="0 0 512 620">
		<title>invoice</title>
		<g>
			<g>
				<path d="M283.242,283.386h-87.6c-5.5,0-10,4.5-10,10s4.5,10,10,10h87.6c5.5,0,10-4.5,10-10S288.742,283.386,283.242,283.386z" />
			</g>
		</g>
		<g>
			<g>
				<path d="M324.942,324.386h-171c-5.5,0-10,4.5-10,10s4.5,10,10,10h171c5.5,0,10-4.5,10-10S330.442,324.386,324.942,324.386z" />
			</g>
		</g>
		<g>
			<g>
				<path d="M324.942,366.386h-171c-5.5,0-10,4.5-10,10s4.5,10,10,10h171c5.5,0,10-4.5,10-10S330.442,366.386,324.942,366.386z" />
			</g>
		</g>
		<g>
			<g>
				<path d="M386.242,0.686c-3.8-1.5-8.1-0.5-10.9,2.6l-21.3,23.3l-21.3-23.2c-3.7-4.1-10-4.3-14.1-0.6c-0.2,0.2-0.4,0.4-0.6,0.6 l-21.3,23.2l-21.3-23.3c-3.7-4.1-10.1-4.3-14.1-0.6c-0.2,0.2-0.4,0.4-0.6,0.6l-21.3,23.2l-21.3-23.2c-3.7-4.1-10.1-4.3-14.1-0.6 c-0.2,0.2-0.4,0.4-0.6,0.6l-21.3,23.2l-21.3-23.2c-3.7-4.1-10.1-4.3-14.1-0.6c-0.2,0.2-0.4,0.4-0.6,0.6l-21.3,23.2l-21.4-23.2 c-2.7-3-7-4.1-10.8-2.6s-6.3,5.2-6.2,9.3v458.8c-0.1,5.4,4.2,9.9,9.6,10c2.9,0.1,5.6-1.1,7.5-3.2l21.3-23.3l21.3,23.2 c3.7,4.1,10,4.3,14.1,0.6c0.2-0.2,0.4-0.4,0.6-0.6l21.3-23.2l21.3,23.2c3.7,4.1,10.1,4.3,14.1,0.6c0.2-0.2,0.4-0.4,0.6-0.6 l21.3-23.2l21.3,23.2c3.7,4.1,10.1,4.3,14.1,0.6c0.2-0.2,0.4-0.4,0.6-0.6l21.3-23.2l21.3,23.2c3.7,4.1,10.1,4.3,14.1,0.6 c0.2-0.2,0.4-0.4,0.6-0.6l21.3-23.2l21.3,23.2c1.9,2.1,4.6,3.2,7.4,3.2c1.2,0,2.3-0.2,3.4-0.7c3.8-1.5,6.3-5.2,6.2-9.3V9.886 C392.542,5.886,390.042,2.186,386.242,0.686z M354.142,427.386c-2.8,0-5.5,1.2-7.4,3.3l-21.3,23.3l-21.3-23.2 c-3.7-4.1-10.1-4.3-14.1-0.6c-0.2,0.2-0.4,0.4-0.6,0.6l-21.3,23.2l-21.3-23.2c-3.7-4.1-10.1-4.3-14.1-0.6 c-0.2,0.2-0.4,0.4-0.6,0.6l-21.3,23.2l-21.3-23.2c-3.7-4.1-10.1-4.3-14.1-0.6c-0.2,0.2-0.4,0.4-0.6,0.6l-21.4,23.2l-21.3-23.3 c-1.9-2.1-4.6-3.3-7.4-3.3s-5.4,1.2-7.2,3.3l-11.1,12.4v-407.4l11.1,12.3c1.8,2.1,4.4,3.3,7.2,3.3c2.8,0,5.5-1.2,7.4-3.3 l21.3-23.3l21.3,23.2c3.7,4.1,10.1,4.3,14.1,0.6c0.2-0.2,0.4-0.4,0.6-0.6l21.3-23.2l21.3,23.2c3.7,4.1,10.1,4.3,14.1,0.6 c0.2-0.2,0.4-0.4,0.6-0.6l21.3-23.2l21.3,23.2c3.7,4.1,10.1,4.3,14.1,0.6c0.2-0.2,0.4-0.4,0.6-0.6l21.3-23.2l21.3,23.3 c1.9,2.1,4.6,3.3,7.4,3.3c2.8,0,5.4-1.2,7.2-3.3l11.2-12.4v407.4l-11.1-12.3C359.542,428.586,356.942,427.386,354.142,427.386z" />
			</g>
		</g>
		<g>
			<g>
				<path d="M270.442,171.086c-4.3-13.5-16.9-22.6-31-22.6c-7,0-12.6-5.6-12.6-12.6s5.6-12.5,12.5-12.6c6.9-0.1,12.6,5.6,12.6,12.6 c0,0,0,0,0,0.1c0,5.5,4.5,10,10,10s10-4.5,10-10c0-14.1-9.1-26.7-22.6-31v-6.3c0-5.5-4.5-10-10-10s-10,4.5-10,10v6.3 c-17.1,5.5-26.5,23.9-21,41c4.3,13.4,16.9,22.6,31,22.6c6.9-0.1,12.6,5.5,12.7,12.5c0.1,7-5.5,12.6-12.5,12.7c0-0.1,0-0.1-0.1-0.1 c-6.9,0-12.6-5.6-12.6-12.6c0-5.5-4.5-10-10-10s-10,4.5-10,10c0,14.1,9.1,26.6,22.6,31v6.4c0,5.5,4.5,10,10,10s10-4.5,10-10v-6.4 C266.542,206.586,275.942,188.186,270.442,171.086z" />
			</g>
		</g>
		<text x="0" y="575" fill="black" font-size="10em">payments</text>
	</symbol>

	<symbol id="loan" viewBox="0 0 128 150">
		<title>loan</title>
		<path d="m116.5 74.206a3.281 3.281 0 0 0 -3.052-2.054h-1.7a16.89 16.89 0 0 0 -8.221 2.143l-12.415 6.942h-3.541a9.8 9.8 0 0 0 -9.63-8.036h-22.361a1.754 1.754 0 0 0 -1.338.621l-6.775 8.03a1.738 1.738 0 0 0 -1.321-.615h-33.146a1.75 1.75 0 0 0 0 3.5h21.38v25.081h-21.38a1.75 1.75 0 0 0 0 3.5h33.146a1.75 1.75 0 0 0 1.75-1.75v-8.392l35.688-1.638c.035 0 .069 0 .1-.008a25.208 25.208 0 0 0 14.907-7l17.157-16.729a3.282 3.282 0 0 0 .752-3.595zm-72.1 35.612h-6.52v-25.081h6.52zm51.751-17.789a21.69 21.69 0 0 1 -12.779 6.015l-35.472 1.629v-12.9l8.5-10.071h21.541a6.3 6.3 0 0 1 6.14 4.95l-17.733 4.353a1.75 1.75 0 0 0 .415 3.449 1.728 1.728 0 0 0 .419-.051l19.006-4.666h5.38a1.749 1.749 0 0 0 .854-.222l12.814-7.165a13.37 13.37 0 0 1 6.513-1.7h1.2z" />
		<path d="m82.316 66.554a25.936 25.936 0 1 0 -25.936-25.936 25.966 25.966 0 0 0 25.936 25.936zm0-48.372a22.436 22.436 0 1 1 -22.436 22.436 22.462 22.462 0 0 1 22.436-22.436z" />
		<path d="m77.72 46.979a1.75 1.75 0 0 0 -3.5 0 8.122 8.122 0 0 0 6.343 7.912v2.942a1.75 1.75 0 1 0 3.5 0v-2.933a8.106 8.106 0 0 0 0-15.841v-9.071a4.614 4.614 0 0 1 2.88 4.268 1.75 1.75 0 0 0 3.5 0 8.122 8.122 0 0 0 -6.38-7.921v-2.935a1.75 1.75 0 0 0 -3.5 0v2.943a8.105 8.105 0 0 0 0 15.823v9.068a4.618 4.618 0 0 1 -2.843-4.255zm9.223 0a4.613 4.613 0 0 1 -2.88 4.268v-8.535a4.612 4.612 0 0 1 2.88 4.267zm-9.223-12.723a4.615 4.615 0 0 1 2.843-4.256v8.513a4.619 4.619 0 0 1 -2.843-4.257z" />
		<text x="35" y="145" fill="black" font-size="2.5em">loan</text>
	</symbol>

	<symbol id="call-center-agent" viewBox="0 0 512 620">
		<title>call-center-agent</title>
		<path d="m474.182 404.877-133.92-43.899v-46.198c9.564-14.137 16.012-30.772 18.287-48.78h24.171c21.107 0 38.28-17.173 38.28-38.281v-41c0-7.99-2.464-15.413-6.667-21.557v-6.829c0-87.305-71.028-158.333-158.333-158.333s-158.333 71.028-158.333 158.333v6.829c-4.203 6.145-6.667 13.568-6.667 21.557v41c0 21.108 17.173 38.281 38.281 38.281h24.171c2.307 18.258 8.907 35.102 18.691 49.365v45.481l-134.326 44.031c-22.619 7.416-37.817 28.392-37.817 52.195v54.928h512v-54.928c0-23.803-15.198-44.779-37.818-52.195zm-272.039-60.201c15.698 10.139 34.142 15.991 53.857 15.991 19.886 0 38.476-5.956 54.262-16.257v20.7c-11.389 9.816-34.37 26.033-54.262 26.033-19.856 0-42.607-16.189-53.857-25.985zm127.32-169.484c-21.739-3.859-38.304-22.88-38.304-45.71h-30c0 25.606-20.832 46.438-46.438 46.438h-32.184v-14.458c0-40.507 32.955-73.462 73.463-73.462s73.463 32.955 73.463 73.462zm-146.926 31.773v-1.044h32.184c25.149 0 47.5-12.208 61.438-31.009 12.416 16.748 31.506 28.263 53.304 30.579v46.011c0 5.895-.62 11.634-1.759 17.165h-54.489v30h41.748c-13.402 19.405-34.841 32-58.962 32-40.507 0-73.463-35.513-73.463-79.165v-44.537zm208.463 20.754c0 4.566-3.715 8.281-8.281 8.281h-23.256v-57.562h23.256c4.566 0 8.281 3.715 8.281 8.281zm-135-197.719c67.445 0 122.905 52.297 127.958 118.469-.412-.013-.823-.031-1.239-.031h-24.074c-6.424-50.924-50.006-90.438-102.645-90.438s-96.221 39.514-102.646 90.438h-24.074c-.415 0-.827.018-1.239.031 5.054-66.172 60.514-118.469 127.959-118.469zm-135 197.719v-41c0-4.566 3.715-8.281 8.281-8.281h23.256v57.562h-23.256c-4.566 0-8.281-3.715-8.281-8.281zm361 254.281h-73.286v-31h-30v31h-245.428v-31h-30v31h-73.286v-24.928c0-10.803 6.897-20.322 17.163-23.687l136.373-44.703c12.94 11.036 41.98 32.461 72.465 32.461 30.42 0 59.644-21.353 72.71-32.38l136.127 44.623c10.265 3.364 17.162 12.884 17.162 23.686z" />
		<text x="55" y="600" fill="black" font-size="10em">Support</text>
	</symbol>

	<symbol id="investment" viewBox="0 0 64 70">
		<title>investment</title>
		<path d="M61.517,38.644l-.014-.023A4.738,4.738,0,0,0,55.393,37l-6.408,3.278a5.514,5.514,0,0,0-7-1.714L33.916,42.7a2.941,2.941,0,0,1-2.72-.017l-5.5-2.92a12.769,12.769,0,0,0-13.342.808l-.622-2.962a1,1,0,0,0-1.189-.772L2.789,38.51a1,1,0,0,0-.768,1.182L6.536,61.205a1,1,0,0,0,.978.8,1.054,1.054,0,0,0,.21-.022l7.758-1.67a1,1,0,0,0,.769-1.183l-.4-1.926,2.651-.57a6.879,6.879,0,0,1,2.35-.09l12.469,1.367A10.694,10.694,0,0,0,40.7,56.179l19.973-13.4A3.018,3.018,0,0,0,61.517,38.644ZM8.287,59.811,4.182,40.256l5.8-1.25L14.09,58.562ZM59.56,41.121l-19.972,13.4a8.735,8.735,0,0,1-6.03,1.4L21.09,54.554a8.762,8.762,0,0,0-3.012.12l-2.642.568L12.8,42.7l.683-.476a10.779,10.779,0,0,1,11.274-.694l5.5,2.92a4.928,4.928,0,0,0,4.57.031L42.9,40.34a3.536,3.536,0,0,1,4.67,1.378,1.009,1.009,0,0,1-.354,1.374l-11.126,6.6a8.809,8.809,0,0,1-6.473,1.025l-10.036-2.4-.465,1.946,10.046,2.4a10.81,10.81,0,0,0,7.948-1.251l11.127-6.6a3,3,0,0,0,1.454-2.652L56.3,38.778a2.736,2.736,0,0,1,3.52.929l.011.018A1.026,1.026,0,0,1,59.56,41.121Z" />
		<rect x="6.7" y="41.565" width="2" height="1.998" transform="translate(-8.575 2.488) rotate(-11.848)" />
		<path d="M21,28a1,1,0,0,0-1,1v6a1,1,0,0,0,1,1h4a1,1,0,0,0,1-1V29a1,1,0,0,0-1-1Zm3,6H22V30h2Z" />
		<path d="M30,21a1,1,0,0,0-1,1V35a1,1,0,0,0,1,1h4a1,1,0,0,0,1-1V22a1,1,0,0,0-1-1Zm3,13H31V23h2Z" />
		<path d="M39,24a1,1,0,0,0-1,1V35a1,1,0,0,0,1,1h4a1,1,0,0,0,1-1V25a1,1,0,0,0-1-1Zm3,10H40V26h2Z" />
		<path d="M48,19a1,1,0,0,0-1,1V35a1,1,0,0,0,1,1h4a1,1,0,0,0,1-1V20a1,1,0,0,0-1-1Zm3,15H49V21h2Z" />
		<path d="M21,12.414l6.293,6.293a1,1,0,0,0,1.414,0L40,7.414l8.293,8.293a1,1,0,0,0,1.414,0L60,5.414V8h2V3a1,1,0,0,0-1-1H56V4h2.586L49,13.586,40.707,5.293a1,1,0,0,0-1.414,0L28,16.586l-6.293-6.293a1,1,0,0,0-1.414,0l-14,14,1.414,1.414Z" />
		<text x="1" y="70" fill="black" font-size="1.1em">Investment</text>
	</symbol>

</svg>